<?xml version="1.0" encoding="utf-8"?>
<!-- Generator: Adobe Illustrator 23.0.3, SVG Export Plug-In . SVG Version: 6.00 Build 0)  -->
<svg version="1.1" id="Layer_1" xmlns="http://www.w3.org/2000/svg" xmlns:xlink="http://www.w3.org/1999/xlink" x="0px" y="0px"
	 viewBox="0 0 33 42" style="enable-background:new 0 0 33 42;" xml:space="preserve">
<style type="text/css">
	.st0{fill:#EDD28C;}
	.st1{fill:#E5A80E;}
</style>
<path class="st0" d="M23,3c0.4,0,0.8,0.2,1.1,0.7c1.4,2.4,4.3,4.1,6.4,5.9c1,0.8,0.1,2.2-1,2.3C28.4,11.9,27.2,12,26,12
	c-0.3,0-0.6,0-0.9,0c-0.6,0-1.1,0-1.6-0.3c-1.6-0.7-2-3.4-2.4-4.8c-0.2-0.8,0.3-1.4,0.9-1.5c-0.1-0.1-0.2-0.2-0.2-0.4
	C21.1,4,22.1,3,23,3"/>
<path class="st1" d="M22.4,1.3L22.4,1.3L22.4,1.3l-0.9-0.9H3.9C2.5,0.4,0,1.2,0,4.2v33.1c0,1.3,0.8,3.8,3.8,3.8H29
	c1.3,0,3.8-0.8,3.8-3.8V11.7L22.4,1.3z M22.4,3.4l7.4,7.4h-5.1c-2.2,0-2.3-1.9-2.3-2.3V3.4z M31.3,37.3c0,2.2-1.9,2.3-2.3,2.3H3.9
	c-2.2,0-2.3-1.9-2.3-2.3V4.2c0-2.2,2-2.3,2.3-2.3h17l0,0v6.6c0,1.3,0.8,3.8,3.9,3.8h6.6l0.1,0.1V37.3z M16.8,22.7
	c-0.5-1.2-1-2.4-1.5-3.4c-0.5-1.1-1-2.2-1.5-3.3h-2.7c-0.5,1.1-1,2.2-1.5,3.2c-0.5,1.1-1,2.2-1.5,3.4c-0.5,1.2-1,2.5-1.5,3.9
	S5.6,29.4,5,31h2.9c0.2-0.6,0.4-1.2,0.6-1.7s0.4-1.2,0.6-1.8h6.5c0.2,0.6,0.4,1.2,0.6,1.8c0.2,0.6,0.4,1.2,0.6,1.8h3
	c-0.6-1.6-1.1-3.1-1.7-4.5C17.8,25.2,17.3,23.9,16.8,22.7z M10,25c0.5-1.4,0.9-2.7,1.3-3.9c0.4-1.2,0.8-2.2,1.2-3.1
	c0.3,0.8,0.7,1.8,1.1,3s0.9,2.5,1.4,4H10z M22.4,16.6c-0.3-0.3-0.5-0.7-0.4-1.1c0-0.4,0.1-0.8,0.4-1.1c0.3-0.3,0.7-0.4,1-0.4
	c0,0,0,0,0,0c0,0,0,0,0,0c0.4,0,0.7,0.1,1,0.4c0.3,0.3,0.5,0.7,0.4,1.1c0,0.4-0.1,0.8-0.4,1.1c-0.3,0.3-0.6,0.4-1,0.4c0,0,0,0,0,0
	c0,0,0,0,0,0C23.1,17,22.7,16.9,22.4,16.6z M22,19h3v12h-3V19z"/>
</svg>
